<svg xmlns="http://www.w3.org/2000/svg" width="802.564" height="795.979" viewBox="0 0 802.564 795.979">
  <g id="circles" transform="translate(-226.227 -226.919)">
    <path id="Path_2" data-name="Path 2" d="M988.494,802.364A400.807,400.807,0,1,0,555.358,1022.45" fill="none" stroke="#00318d" stroke-width="0.912"/>
    <path id="Path_3" data-name="Path 3" d="M493.929,513.075a176.352,176.352,0,1,0,209.15-44.215" fill="none" stroke="#00318d" stroke-width="0.912"/>
    <path id="Path_4" data-name="Path 4" d="M512.291,458.941A204.76,204.76,0,1,0,760.146,472.2" fill="none" stroke="#00318d" stroke-width="0.912"/>
    <path id="Path_5" data-name="Path 5" d="M550.421,407.373a233.9,233.9,0,1,0,269.558,87.914" fill="none" stroke="#00318d" stroke-width="0.912"/>
    <path id="Path_6" data-name="Path 6" d="M608.228,368.325A260.592,260.592,0,1,0,872.963,540.663" fill="none" stroke="#00318d" stroke-width="0.912"/>
    <path id="Path_7" data-name="Path 7" d="M752.422,369.3a287.457,287.457,0,1,0,157.852,310.65" fill="none" stroke="#00318d" stroke-width="0.912"/>
    <path id="Path_8" data-name="Path 8" d="M924.106,524.661A314.144,314.144,0,1,0,806.031,886.7" fill="none" stroke="#00318d" stroke-width="0.912"/>
    <path id="Path_9" data-name="Path 9" d="M970.539,602.742A343.969,343.969,0,1,0,743.061,952.181" fill="none" stroke="#00318d" stroke-width="0.912"/>
    <path id="Path_10" data-name="Path 10" d="M994.532,697.915A373.583,373.583,0,1,0,657.661,1000.56" fill="none" stroke="#00318d" stroke-width="0.912"/>
  </g>
</svg>
