<svg xmlns="http://www.w3.org/2000/svg" width="60" height="56" viewBox="0 0 60 56">
  <path id="ebs" d="M22.97,19.821l2.55-1.761H23.1A5.789,5.789,0,0,0,22.97,19.821ZM38.551,32.653a5.345,5.345,0,0,1,1.9,2.573H36.968l-4.226,2.916h7.919a6.6,6.6,0,0,1-3.2,4.452,12.432,12.432,0,0,1-4.714,1.768V30.085A16.023,16.023,0,0,1,38.551,32.653ZM57.462,22.592a21.109,21.109,0,0,0-9.569-3.333c6.277-.538,11.1-3.723,11.1-7.572,0-4.229-3.515-7.654-12.98-7.654H32.743V0l-2.3,1.586v51.97l2.3-1.584V45.747a20.939,20.939,0,0,0,8.311-2.729,9.8,9.8,0,0,0,4.463-4.954,6.81,6.81,0,0,0,.445-2.839,6.5,6.5,0,0,0-2.789-5.267c-1.842-1.452-4.963-2.746-9.4-3.864l-1.033-.259V11.978a13.771,13.771,0,0,1,4.043.835,17.627,17.627,0,0,1,3.953,2.122l3.408-2.354a57.444,57.444,0,0,0-6.207-1.495,34.925,34.925,0,0,0-5.2-.4V6.489H46.006c5.46,0,7.5,2.59,7.5,5.786s-3.359,5.786-7.5,5.786H36.193l-3.45,2.388H44.176c5.04,0,10.783,1.814,10.783,7.68,0,4.735-3.749,6.71-7.97,7.044A8.355,8.355,0,0,1,47,37.955q6.124-.553,9.481-2.7a7.86,7.86,0,0,0,3.833-7A6.46,6.46,0,0,0,57.462,22.592ZM26.9,11.152a18.177,18.177,0,0,0-6.016,2.186A8.413,8.413,0,0,0,16.79,18.06H6.15V6.489H26.9Zm0,12.9a16.349,16.349,0,0,1-1.55-.684A6.957,6.957,0,0,1,22.3,20.647l-.127-.25a6.144,6.144,0,0,1-.439-2.337,5.441,5.441,0,0,1,2.666-4.4A9.462,9.462,0,0,1,26.9,12.5ZM.31,4.032v34.11H23.146l3.754-2.6H6.15v-15.1H16.527c.13,2.476,1.451,4.411,4.041,5.817A36.888,36.888,0,0,0,26.9,28.537V44.468a14.985,14.985,0,0,1-7.946-3.435L15.43,43.456l.172.069A30.655,30.655,0,0,0,26.9,46V56l2.3-1.586V2.446L26.9,4.032Z" transform="translate(-0.31 0)" fill="#00318d"/>
</svg>
