<svg id="globe" xmlns="http://www.w3.org/2000/svg" xmlns:xlink="http://www.w3.org/1999/xlink" width="24" height="24" viewBox="0 0 24 24">
  <defs>
    <clipPath id="clip-path">
      <rect id="Rectangle_3" data-name="Rectangle 3" width="24" height="24" fill="none"/>
    </clipPath>
  </defs>
  <g id="Group_1" data-name="Group 1" clip-path="url(#clip-path)">
    <path id="Path_1" data-name="Path 1" d="M11.667.667a11,11,0,1,0,11,11,11.012,11.012,0,0,0-11-11m8.942,10H16.625a15.419,15.419,0,0,0-2.637-7.686,9.014,9.014,0,0,1,6.62,7.686m-11.906,2h5.927a13.437,13.437,0,0,1-2.963,7.486A13.439,13.439,0,0,1,8.7,12.667m0-2A13.443,13.443,0,0,1,11.667,3.18a13.441,13.441,0,0,1,2.963,7.488Zm.642-7.686a15.419,15.419,0,0,0-2.637,7.686H2.725a9.014,9.014,0,0,1,6.62-7.686m-6.62,9.685H6.707a15.412,15.412,0,0,0,2.636,7.684,9.015,9.015,0,0,1-6.618-7.684M13.99,20.351a15.414,15.414,0,0,0,2.637-7.684h3.981a9.013,9.013,0,0,1-6.618,7.684" transform="translate(0.334 0.334)" fill="#00318d"/>
  </g>
</svg>
