<svg id="rocket" xmlns="http://www.w3.org/2000/svg" xmlns:xlink="http://www.w3.org/1999/xlink" width="25" height="25" viewBox="0 0 25 25">
  <defs>
    <clipPath id="clip-path">
      <rect id="Rectangle_10" data-name="Rectangle 10" width="25" height="25" fill="none"/>
    </clipPath>
  </defs>
  <g id="Group_3" data-name="Group 3" clip-path="url(#clip-path)">
    <path id="Path_18" data-name="Path 18" d="M6.106,18.05c-1.7,1.427-2.244,5.181-2.3,5.6a.625.625,0,0,0,.62.708.744.744,0,0,0,.083-.005c.423-.057,4.177-.6,5.6-2.3a2.839,2.839,0,0,0-4-4.007m3.048,3.2c-.747.89-2.68,1.452-3.961,1.717.265-1.281.827-3.214,1.717-3.961h0a1.646,1.646,0,0,1,1.064-.389,1.57,1.57,0,0,1,1.18,2.634M25.362,3.425a.625.625,0,0,0-.621-.625h-.09A13.937,13.937,0,0,0,13.043,8.956c-1.066-.286-3.745-.851-5.32.2C6.041,10.28,5.436,13.38,5.372,13.73a.625.625,0,0,0,.615.736h4.949L13.7,17.225v4.949a.626.626,0,0,0,.737.615c.349-.064,3.449-.668,4.575-2.352,1.045-1.568.49-4.23.2-5.305A13.874,13.874,0,0,0,25.362,3.425M8.417,10.195c.933-.622,2.758-.39,3.923-.124a23.533,23.533,0,0,0-1.562,3.145h-4a5.8,5.8,0,0,1,1.643-3.021m9.551,9.549a5.8,5.8,0,0,1-3.022,1.643v-4A23.97,23.97,0,0,0,18.1,15.844c.264,1.166.489,2.973-.128,3.9m.185-5.389a22.69,22.69,0,0,1-3.679,1.881L11.927,13.69a22.4,22.4,0,0,1,1.881-3.632,12.7,12.7,0,0,1,10.29-6,12.673,12.673,0,0,1-5.945,10.294" transform="translate(-1.821 -1.341)" fill="#1f3c8e"/>
  </g>
</svg>
